<?xml version="1.0" encoding="utf-8"?>
<svg xmlns="http://www.w3.org/2000/svg" viewBox="0 0 30 30" width="60" height="60">
  <path d="M13 -0.01171875C12.15 -0.01171875 11.338484 0.35142188 10.771484 0.98242188L4.4550781 8L1 8C0.45 8 0 8.45 0 9L0 11C0 11.55 0.45 12 1 12L1.3300781 12L2.7207031 20.330078C2.8807031 21.290078 3.7194531 22 4.6894531 22L14.060547 22C14.300547 19.73 15.39 17.719297 17 16.279297L17 13C17 12.45 17.45 12 18 12C18.55 12 19 12.45 19 13L19 14.929688C20.21 14.329688 21.56 14 23 14C23.45 14 23.890312 14.029844 24.320312 14.089844L24.669922 12L25 12C25.55 12 26 11.55 26 11L26 9C26 8.45 25.55 8 25 8L21.544922 8L15.228516 0.98242188C14.661516 0.35242187 13.85 -0.01171875 13 -0.01171875 z M 13 1.9980469C13.275375 1.9980469 13.550188 2.1063125 13.742188 2.3203125L18.855469 8L7.1445312 8L12.257812 2.3203125C12.450312 2.1063125 12.724625 1.9980469 13 1.9980469 z M 8 12C8.55 12 9 12.45 9 13L9 18C9 18.55 8.55 19 8 19C7.45 19 7 18.55 7 18L7 13C7 12.45 7.45 12 8 12 z M 13 12C13.55 12 14 12.45 14 13L14 18C14 18.55 13.55 19 13 19C12.45 19 12 18.55 12 18L12 13C12 12.45 12.45 12 13 12 z M 23 16C21.51 16 20.13 16.459766 19 17.259766C18.39 17.679766 17.850156 18.200781 17.410156 18.800781C16.710156 19.720781 16.240078 20.81 16.080078 22C16.020078 22.32 16 22.66 16 23C16 26.87 19.13 30 23 30C26.87 30 30 26.87 30 23C30 19.47 27.390234 16.550078 23.990234 16.080078C23.670234 16.020078 23.34 16 23 16 z M 23 19C23.17 19 23.340469 19.040859 23.480469 19.130859C23.790469 19.290859 24 19.62 24 20L24 22L26 22C26.55 22 27 22.45 27 23C27 23.55 26.55 24 26 24L24 24L24 26C24 26.55 23.55 27 23 27C22.45 27 22 26.55 22 26L22 24L20 24C19.45 24 19 23.55 19 23C19 22.45 19.45 22 20 22L21.300781 22L22 22L22 21.869141L22 20C22 19.45 22.45 19 23 19 z" fill="#FFCBCB" />
</svg>