<?xml version="1.0" encoding="utf-8"?>
<svg xmlns="http://www.w3.org/2000/svg" viewBox="0 0 48 48" width="144" height="144">
  <path d="M3.5 6 A 1.50015 1.50015 0 1 0 3.5 9L6.2558594 9C6.9837923 9 7.5905865 9.5029243 7.7285156 10.21875L11.251953 28.716797C11.835068 31.772321 14.527135 34 17.638672 34L36.361328 34C39.472865 34 42.166064 31.773177 42.748047 28.716797L45.972656 11.78125 A 1.50015 1.50015 0 1 0 43.027344 11.21875L39.800781 28.15625C39.484764 29.81587 38.051791 31 36.361328 31L17.638672 31C15.948808 31 14.516781 29.8158 14.199219 28.15625L14.199219 28.154297L10.675781 9.6582031C10.272657 7.5455321 8.4069705 6 6.2558594 6L3.5 6 z M 31.566406 10.009766C30.155106 9.9922166 28.738705 10.509824 27.658203 11.566406L27.658203 11.564453L26.998047 12.208984L26.341797 11.566406C24.180613 9.4544337 20.670356 9.4982116 18.5625 11.662109C16.454332 13.826294 16.497628 17.333932 18.658203 19.445312L25.951172 26.572266 A 1.50015 1.50015 0 0 0 28.046875 26.572266L35.341797 19.445312C37.501937 17.33436 37.54445 13.825876 35.4375 11.662109C34.383666 10.579572 32.977706 10.027314 31.566406 10.009766 z M 31.529297 12.988281C32.165247 12.996281 32.798943 13.252444 33.287109 13.753906 A 1.50015 1.50015 0 0 0 33.287109 13.755859C34.264176 14.758255 34.245333 16.320435 33.244141 17.298828L26.998047 23.404297L20.753906 17.300781C19.752485 16.322162 19.733107 14.759674 20.710938 13.755859C21.687082 12.753761 23.243324 12.732909 24.244141 13.710938 A 1.50015 1.50015 0 0 0 24.244141 13.712891L25.951172 15.378906 A 1.50015 1.50015 0 0 0 28.046875 15.378906L29.753906 13.710938C30.254404 13.221519 30.893347 12.98033 31.529297 12.988281 z M 20 36 A 3 3 0 0 0 20 42 A 3 3 0 0 0 20 36 z M 34 36 A 3 3 0 0 0 34 42 A 3 3 0 0 0 34 36 z" fill="#5B5B5B" />
</svg>