<?xml version="1.0" encoding="utf-8"?>
<svg xmlns="http://www.w3.org/2000/svg" viewBox="0 0 30 30" width="60" height="60">
  <path d="M18.5 3L17 4.5L18.5 6L20 4.5L18.5 3 z M 10.5 4C9.672 4 9 4.672 9 5.5C9 6.328 9.672 7 10.5 7L12.011719 7C12.559719 7 13.005719 7.436375 13.011719 7.984375C13.030719 9.639375 13 13 13 13C13 13 15 10 15 7C15 5.468 14 4 12 4L10.5 4 z M 24 4C22.906937 4 22 4.9069372 22 6L22 8L21 8C19.906937 8 19 8.9069372 19 10L19 11L18.925781 11C18.108475 11 17.312262 11.264975 16.658203 11.755859L16.585938 11.810547L14.265625 14.320312L15.734375 15.679688L17.892578 13.34375C18.194842 13.126346 18.553136 13 18.925781 13L19 13C20.093063 13 21 12.093063 21 11L21 10L22 10C23.093063 10 24 9.0930628 24 8L24 6L27 6L27 4L24 4 z M 5.5 5L4 6.5L5.5 8L7 6.5L5.5 5 z M 3.5 11L2 12.5L3.5 14L5 12.5L3.5 11 z M 25.5 11L24 12.5L25.5 14L27 12.5L25.5 11 z M 7.9902344 11.990234 A 1.0001 1.0001 0 0 0 7.2929688 13.707031L7.5957031 14.009766L3.1035156 25.240234C2.6875156 26.280234 3.7197656 27.312484 4.7597656 26.896484L15.990234 22.404297L16.292969 22.707031 A 1.0001 1.0001 0 1 0 17.707031 21.292969L13.232422 16.818359L8.7070312 12.292969 A 1.0001 1.0001 0 0 0 7.9902344 11.990234 z M 23 15C20 15 17 17 17 17C17 17 20.360625 16.969281 22.015625 16.988281C22.563625 16.994281 23 17.440281 23 17.988281L23 19.5C23 20.328 23.672 21 24.5 21C25.328 21 26 20.328 26 19.5L26 18C26 16 24.532 15 23 15 z M 21.5 22L20 23.5L21.5 25L23 23.5L21.5 22 z" fill="#FFCBCB" />
</svg>