<?xml version="1.0" encoding="utf-8"?>
<svg xmlns="http://www.w3.org/2000/svg" viewBox="0 0 48 48" width="48" height="48">
  <path d="M15 7C8.9424416 7 4 11.942442 4 18C4 22.096154 7.0876448 25.952899 10.851562 29.908203C14.615481 33.863507 19.248379 37.869472 22.939453 41.560547 A 1.50015 1.50015 0 0 0 25.060547 41.560547C28.751621 37.869472 33.384518 33.863507 37.148438 29.908203C40.912356 25.952899 44 22.096154 44 18C44 11.942442 39.057558 7 33 7C29.523564 7 26.496821 8.8664883 24 12.037109C21.503179 8.8664883 18.476436 7 15 7 z M 15 10C17.928571 10 20.3663 11.558399 22.732422 15.300781 A 1.50015 1.50015 0 0 0 25.267578 15.300781C27.6337 11.558399 30.071429 10 33 10C37.436442 10 41 13.563558 41 18C41 20.403846 38.587644 24.047101 34.976562 27.841797C31.68359 31.30221 27.590312 34.917453 24 38.417969C20.409688 34.917453 16.31641 31.30221 13.023438 27.841797C9.4123552 24.047101 7 20.403846 7 18C7 13.563558 10.563558 10 15 10 z M 31.976562 13.978516 A 1.50015 1.50015 0 0 0 30.5 15.5L30.5 17.5L28.5 17.5 A 1.50015 1.50015 0 1 0 28.5 20.5L30.5 20.5L30.5 22.5 A 1.50015 1.50015 0 1 0 33.5 22.5L33.5 20.5L35.5 20.5 A 1.50015 1.50015 0 1 0 35.5 17.5L33.5 17.5L33.5 15.5 A 1.50015 1.50015 0 0 0 31.976562 13.978516 z" fill="#FFCBCB" />
</svg>