<?xml version="1.0" encoding="utf-8"?>
<svg xmlns="http://www.w3.org/2000/svg" viewBox="0 0 100 100" width="400" height="400">
  <path d="M27 19C20.384534 19 15 24.384534 15 31L15 69C15 75.615466 20.384534 81 27 81L73 81C79.615466 81 85 75.615466 85 69L85 31C85 24.384534 79.615466 19 73 19L27 19 z M 27 21L73 21C78.534534 21 83 25.465466 83 31L83 69C83 74.534534 78.534534 79 73 79L27 79C21.465466 79 17 74.534534 17 69L17 31C17 25.465466 21.465466 21 27 21 z M 27 24C23.139805 24 20 27.139805 20 31L20 56.429688 A 0.50005 0.50005 0 0 0 20 56.591797L20 69C20 72.860195 23.139805 76 27 76L67.429688 76 A 0.50005 0.50005 0 0 0 67.591797 76L73 76C76.860195 76 80 72.860195 80 69L80 64.595703 A 0.50005 0.50005 0 0 0 80 64.425781L80 53.5 A 0.50005 0.50005 0 1 0 79 53.5L79 63.292969L66.558594 50.851562C65.991762 50.284731 65.243958 50 64.5 50C63.756042 50 63.008238 50.284731 62.441406 50.851562L53 60.292969L36.558594 43.851562C35.991762 43.284731 35.243958 43 34.5 43C33.756042 43 33.008238 43.284731 32.441406 43.851562L21 55.292969L21 31C21 27.680195 23.680195 25 27 25L68.5 25 A 0.50005 0.50005 0 1 0 68.5 24L27 24 z M 66.5 32C64.708334 32 63.301922 32.689878 62.376953 33.730469C61.451984 34.77106 61 36.138889 61 37.5C61 38.861111 61.451984 40.22894 62.376953 41.269531C63.301922 42.310122 64.708334 43 66.5 43C69.531645 43 72 40.531643 72 37.5C72 34.468357 69.531645 32 66.5 32 z M 66.5 33C68.991206 33 71 35.008796 71 37.5C71 39.991204 68.991206 42 66.5 42C64.958334 42 63.864743 41.439878 63.123047 40.605469C62.38135 39.77106 62 38.638889 62 37.5C62 36.361111 62.38135 35.22894 63.123047 34.394531C63.864743 33.560122 64.958334 33 66.5 33 z M 79.492188 40.992188 A 0.50005 0.50005 0 0 0 79 41.5L79 43.5 A 0.50005 0.50005 0 1 0 80 43.5L80 41.5 A 0.50005 0.50005 0 0 0 79.492188 40.992188 z M 34.5 44C34.990042 44 35.476395 44.183426 35.851562 44.558594L52.576172 61.283203 A 0.50005 0.50005 0 0 0 52.720703 61.425781L66.292969 75L27 75C23.680195 75 21 72.319805 21 69L21 56.707031L33.148438 44.558594C33.523605 44.183426 34.009958 44 34.5 44 z M 79.492188 45.992188 A 0.50005 0.50005 0 0 0 79 46.5L79 50.5 A 0.50005 0.50005 0 1 0 80 50.5L80 46.5 A 0.50005 0.50005 0 0 0 79.492188 45.992188 z M 64.5 51C64.990042 51 65.476395 51.183426 65.851562 51.558594L79 64.707031L79 69C79 72.319805 76.319805 75 73 75L67.707031 75L53.707031 61L63.148438 51.558594C63.523605 51.183426 64.009958 51 64.5 51 z" fill="#5B5B5B" />
</svg>