<?xml version="1.0" encoding="utf-8"?>
<svg xmlns="http://www.w3.org/2000/svg" viewBox="0 0 48 48" width="144" height="144">
  <path d="M10.5 6C8.0356875 6 5.9454099 7.627676 5.2480469 9.8652344C5.2478641 9.86582 5.2482295 9.8666018 5.2480469 9.8671875C5.1410607 10.21088 5.0668503 10.568788 5.0292969 10.9375C5.0292309 10.938145 5.0293626 10.938808 5.0292969 10.939453C5.010616 11.123509 5 11.311094 5 11.5L5 13.146484L3.1582031 16.828125C3.0392031 17.066125 2.9869063 17.333609 3.0039062 17.599609C3.1219062 19.383609 3.879 20.966531 5 22.269531L5 36.5C5 39.533 7.467 42 10.5 42L25.056641 42C24.462641 41.073 23.979766 40.068 23.634766 39L10.5 39C9.122 39 8 37.878 8 36.5L8 24.667969C9.576 25.521969 11.339 26 13 26C14.953 26 16.810609 25.383234 18.349609 24.240234C20.008609 25.382234 21.972 26 24 26C25.09 26 26.159781 25.816609 27.175781 25.474609C28.682781 24.077609 30.515688 23.035562 32.554688 22.476562C31.892688 22.180563 31.281906 21.768234 30.753906 21.240234C30.461906 20.947234 30.076406 20.800781 29.691406 20.800781C29.332406 20.800781 28.971547 20.9285 28.685547 21.1875C27.392547 22.3565 25.729 23 24 23C22.271 23 20.6065 22.355547 19.3125 21.185547C18.7205 20.650547 17.812094 20.672281 17.246094 21.238281C16.112094 22.374281 14.604 23 13 23C10.056 23 6.5030625 20.747344 6.0390625 17.777344L7.4277344 15L40.572266 15L41.960938 17.777344C41.661938 19.686344 40.08775 21.294125 38.21875 22.203125C39.95575 22.502125 41.570047 23.141641 42.998047 24.056641L42.998047 22.269531C44.119047 20.966531 44.878094 19.383609 44.996094 17.599609C45.014094 17.333609 44.960797 17.066125 44.841797 16.828125L43 13.146484L43 11.5C43 11.309838 42.98965 11.122755 42.970703 10.9375C42.93315 10.568788 42.858939 10.21088 42.751953 9.8671875C42.751771 9.8666018 42.752136 9.86582 42.751953 9.8652344C42.644667 9.5209946 42.505466 9.1925601 42.335938 8.8808594C41.657945 7.6346085 40.510765 6.6775943 39.134766 6.2480469C39.134168 6.2478607 39.13341 6.2482328 39.132812 6.2480469C38.789218 6.140914 38.431076 6.0669919 38.0625 6.0292969C38.06186 6.0292317 38.061186 6.0293618 38.060547 6.0292969C37.875918 6.0104805 37.6895 6 37.5 6L10.5 6 z M 10.5 9C11.328 9 12 9.672 12 10.5C12 11.328 11.328 12 10.5 12C9.672 12 9 11.328 9 10.5C9 9.7755 9.5139453 9.1711953 10.197266 9.03125C10.294883 9.0112578 10.3965 9 10.5 9 z M 15.5 9C16.328 9 17 9.672 17 10.5C17 11.328 16.328 12 15.5 12C14.672 12 14 11.328 14 10.5C14 9.672 14.672 9 15.5 9 z M 21.5 9L37.5 9C37.6035 9 37.705117 9.0112578 37.802734 9.03125C38.486055 9.1711953 39 9.7755 39 10.5C39 11.328 38.328 12 37.5 12L21.5 12C20.672 12 20 11.328 20 10.5C20 9.672 20.672 9 21.5 9 z M 36 24C35.413 24 34.838344 24.049531 34.277344 24.144531L33.931641 25.576172C33.394641 27.801172 31.105156 29.123609 28.910156 28.474609L27.705078 28.117188C26.981078 29.050187 26.401 30.110813 26 31.257812L26.894531 32.117188C28.529531 33.691187 28.529531 36.308813 26.894531 37.882812L26 38.742188C26.401 39.889187 26.980078 40.948812 27.705078 41.882812L28.910156 41.525391C31.105156 40.876391 33.394641 42.198828 33.931641 44.423828L34.277344 45.855469C34.838344 45.950469 35.414 46 36 46C36.587 46 37.161656 45.950469 37.722656 45.855469L38.068359 44.423828C38.605359 42.198828 40.894844 40.876391 43.089844 41.525391L44.294922 41.882812C45.018922 40.949813 45.599 39.889187 46 38.742188L45.105469 37.882812C43.470469 36.309812 43.470469 33.690188 45.105469 32.117188L46 31.257812C45.599 30.110813 45.019922 29.051187 44.294922 28.117188L43.089844 28.474609C40.894844 29.123609 38.605359 27.801172 38.068359 25.576172L37.722656 24.144531C37.161656 24.049531 36.587 24 36 24 z M 36 32C37.657 32 39 33.343 39 35C39 36.657 37.657 38 36 38C34.343 38 33 36.657 33 35C33 33.343 34.343 32 36 32 z" fill="#5B5B5B" />
</svg>