<?xml version="1.0" encoding="utf-8"?>
<svg xmlns="http://www.w3.org/2000/svg" viewBox="0 0 26 26" width="52" height="52">
  <path d="M8.800781 5.601563C13.800781 4.601563 19.699219 5 19.898438 5.101563C20.101563 5.101563 20.398438 5.199219 20.5 5.398438C20.699219 5.601563 20.800781 5.800781 20.800781 6C20.800781 6.199219 21.199219 12.101563 20.300781 17.101563C20.199219 17.5 19.898438 17.800781 19.601563 17.898438C19.199219 18 18.800781 17.898438 18.5 17.601563L15.898438 15C15.898438 15 9.300781 20.898438 8.800781 21C8.101563 21.101563 6.898438 20.5 6.199219 19.699219C5.398438 19 4.898438 17.898438 5 17.199219C5.101563 16.699219 10.898438 10 10.898438 10L8.300781 7.398438C8 7.101563 7.898438 6.699219 8 6.398438C8.101563 6 8.398438 5.699219 8.800781 5.601563Z" fill="#FFCBCB" />
</svg>