<?xml version="1.0" encoding="utf-8"?>
<svg xmlns="http://www.w3.org/2000/svg" viewBox="0 0 64 64" width="512" height="512">
  <path d="M36 2C20 2 14 6 14 17L14 22L14 23.023438C13.592 23.666438 13 24.879 13 26.5C13 28.981 14.503656 30.697 15.222656 31.375C16.018656 33.442 17.406266 35.448172 18.947266 37.201172L18.505859 43.613281L1 49L1.4394531 51.660156C1.7594531 53.590156 3.430625 55 5.390625 55L36 55L36 50.529297C36 48.829297 37.110937 47.319063 38.710938 46.789062C38.900937 46.239062 39.119141 45.720937 39.369141 45.210938L38.800781 44.019531L37.494141 43.615234L37.052734 37.201172C38.593734 35.447172 39.981344 33.442 40.777344 31.375C41.496344 30.697 43 28.981 43 26.5C43 24.879 42.408 23.666438 42 23.023438L42 23L42 17C42 13.5 41 8 38 8L36 2 z M 48.560547 2C44.460547 2 41.109687 2.3007031 38.429688 2.9707031L38.720703 3.8398438L39.529297 6.2597656C39.789297 6.3597656 40.039531 6.4808594 40.269531 6.6308594C40.274479 6.630256 40.280203 6.631454 40.285156 6.6308594C41.987182 7.6776759 43.012762 9.8936808 43.539062 12.419922C46.479063 12.209922 48.560547 11.619141 48.560547 11.619141C50.051713 12.89589 50.703464 15.209921 50.988281 17.25C50.988334 17.266879 50.990234 17.283909 50.990234 17.300781L50.990234 21.359375L51.359375 21.779297C51.359375 21.779297 51.869141 22.429922 51.869141 23.419922C51.869141 24.789922 50.710938 25.720703 50.710938 25.720703L50.349609 26L50.199219 26.429688C48.689219 30.769687 43.769844 34.389062 42.589844 35.039062L41.160156 35.039062C40.620156 35.919063 39.980234 36.809219 39.240234 37.699219C39.670234 37.919219 40.02 38.039062 40.25 38.039062L42.880859 38.039062C44.330859 38.039062 50.790391 33.239063 52.900391 27.789062C53.560391 27.159063 54.869141 25.619922 54.869141 23.419922C54.869141 21.999922 54.360234 20.920078 53.990234 20.330078L53.990234 17.300781C53.990234 16.330477 53.917388 15.404129 53.789062 14.517578C53.688065 11.587036 52.834948 7.5946265 50.587891 7.2832031C50.460928 7.1434874 50.322827 7.0172585 50.189453 6.8847656L48.560547 2 z M 19 13C19 13 23.5 14 28 14C32.5 14 36 13 36 13C38.423124 15.076963 38.918085 19.504359 39 22.060547L39 23.5L39.005859 23.695312C39.003321 23.747877 39 24 39 24L39.013672 23.996094L39.015625 24.050781L39.349609 24.464844C39.376609 24.497844 40 25.277 40 26.5C40 28.179 38.59875 29.300687 38.59375 29.304688L38.232422 29.578125L38.082031 30.007812C36.325031 35.054812 30.512516 39.321 29.228516 40L26.769531 40C25.485531 39.321 19.673016 35.054812 17.916016 30.007812L17.767578 29.578125L17.40625 29.304688C17.39325 29.293688 16 28.191 16 26.5C16 25.277 16.623719 24.497469 16.636719 24.480469L17 24.058594L17 20.650391C17.107981 17.980824 17.532442 14.467558 19 13 z M 49.146484 38L48.162109 41.001953C47.385109 41.221953 46.648031 41.535922 45.957031 41.919922L44.509766 41.132812C43.730766 40.709812 42.766625 40.847609 42.140625 41.474609L40.496094 43.119141L41.923828 45.933594C41.536828 46.624594 41.236625 47.367531 41.015625 48.144531L39.433594 48.611328C38.582594 48.862328 38 49.643297 38 50.529297L38 52.853516L41.001953 53.837891C41.221953 54.614891 41.535922 55.351969 41.919922 56.042969L41.132812 57.490234C40.709812 58.269234 40.847609 59.233375 41.474609 59.859375L43.119141 61.503906L45.933594 60.076172C46.624594 60.463172 47.367531 60.763375 48.144531 60.984375L48.611328 62.566406C48.862328 63.417406 49.643297 64 50.529297 64L52.853516 64L53.837891 60.998047C54.614891 60.778047 55.351969 60.464078 56.042969 60.080078L57.490234 60.867188C58.269234 61.290188 59.233375 61.152391 59.859375 60.525391L61.503906 58.880859L60.076172 56.066406C60.463172 55.375406 60.763375 54.632469 60.984375 53.855469L62.566406 53.388672C63.417406 53.137672 64 52.356703 64 51.470703L64 49.146484L60.998047 48.162109C60.778047 47.385109 60.464078 46.648031 60.080078 45.957031L60.867188 44.509766C61.290188 43.730766 61.152391 42.766625 60.525391 42.140625L58.880859 40.496094L56.066406 41.923828C55.375406 41.536828 54.632469 41.236625 53.855469 41.015625L53.388672 39.433594C53.137672 38.582594 52.356703 38 51.470703 38L49.146484 38 z M 21.761719 40.007812C23.856719 41.836813 25.778 43 26.5 43L29.5 43C30.222 43 32.143281 41.836813 34.238281 40.007812L34.818359 48.427734C33.777842 49.014325 31.523431 50 28 50C24.476569 50 22.222158 49.014325 21.181641 48.427734L21.761719 40.007812 z M 51 45.703125C53.925 45.703125 56.296875 48.075 56.296875 51C56.296875 53.925 53.925 56.296875 51 56.296875C48.075 56.296875 45.703125 53.925 45.703125 51C45.703125 48.075 48.075 45.703125 51 45.703125 z" fill="#5B5B5B" />
</svg>